# xmcd CD database file
#
# Track frame offsets:
#	150
#	22924
#	39066
#	63069
#	77304
#	103990
#	124285
#	155238
#	192313
#	229421
#	256476
#	272105
#
# Disc length: 4214 seconds
#
# Revision: 0
# Processed by: cddbd v1.4PL0 Copyright (c) Steve Scherf et al.
# Submitted via: CDex 1.51
#
DISCID=9c10740c
DTITLE=Konrad Windisch - Got the blues and more
DYEAR=1900
DGENRE=Blues
TTITLE0=Built for comfort
TTITLE1=Vicksburg is my home
TTITLE2=One kind favor
TTITLE3=Freight train
TTITLE4=C.C.Rider
TTITLE5=Cocaine blues
TTITLE6=Sittin' on top of the world
TTITLE7=Kindhearted woman blues
TTITLE8=Walking blues
TTITLE9=Nobody knows you when you're down and out
TTITLE10=Irene good night
TTITLE11=The last thing on my mind and Midnight special
EXTD=
EXTT0=
EXTT1=
EXTT2=
EXTT3=
EXTT4=
EXTT5=
EXTT6=
EXTT7=
EXTT8=
EXTT9=
EXTT10=
EXTT11=
PLAYORDER=
